<svg xmlns="http://www.w3.org/2000/svg" width="35" height="35" viewBox="0 0 100 100">
 <metadata id="metadata8">image/svg+xml</metadata>
 <title>GitHub</title>
  <path stroke="null" d="m92.561317,26.405207c-4.406113,-7.549381 -10.382736,-13.526242 -17.931442,-17.931914c-7.549835,-4.4059 -15.791992,-6.60829 -24.73233,-6.60829c-8.939217,0 -17.184082,2.203059 -24.732338,6.60829c-7.549385,4.405456 -13.525786,10.382533 -17.931917,17.931914c-4.405452,7.54915 -6.60829,15.792894 -6.60829,24.730989c0,10.736668 3.132469,20.391361 9.398976,28.966557c6.265833,8.575844 14.360367,14.510025 24.282909,17.803154c1.155014,0.214363 2.01004,0.063599 2.565975,-0.448524c0.556156,-0.512794 0.833897,-1.154999 0.833897,-1.923973c0,-0.128319 -0.011009,-1.282631 -0.032356,-3.464371c-0.022022,-2.181709 -0.03236,-4.085007 -0.03236,-5.708992l-1.475677,0.255272c-0.940861,0.172363 -2.127781,0.245377 -3.56076,0.224716c-1.432304,-0.020004 -2.919216,-0.170105 -4.458704,-0.449211c-1.540173,-0.276619 -2.972708,-0.918167 -4.298719,-1.923294c-1.32534,-1.005142 -2.266209,-2.320808 -2.822369,-3.945007l-0.64155,-1.476357c-0.427629,-0.98288 -1.100857,-2.07476 -2.020601,-3.271568c-0.919735,-1.197922 -1.849813,-2.010033 -2.790677,-2.43766l-0.449196,-0.321556c-0.299314,-0.213715 -0.577057,-0.471451 -0.8339,-0.770531c-0.256619,-0.299095 -0.44875,-0.598412 -0.57706,-0.89817c-0.128534,-0.299988 -0.022021,-0.546059 0.320662,-0.739075c0.342686,-0.193031 0.961988,-0.286751 1.860605,-0.286751l1.28265,0.191689c0.855474,0.171455 1.913635,0.683571 3.175837,1.539505c1.261522,0.85524 2.298569,1.967117 3.111341,3.335144c0.984236,1.754097 2.170033,3.090683 3.560764,4.010422c1.389608,0.919739 2.790686,1.378815 4.201866,1.378815c1.41119,0 2.630016,-0.106956 3.656944,-0.319748c1.02581,-0.213928 1.988239,-0.5355 2.88686,-0.962898c0.38493,-2.866844 1.43298,-5.069252 3.143253,-6.608727c-2.43766,-0.256187 -4.629272,-0.642014 -6.575947,-1.155029c-1.945538,-0.513687 -3.95602,-1.347359 -6.030096,-2.503273c-2.075205,-1.154335 -3.796713,-2.587769 -5.164978,-4.297821c-1.368492,-1.710945 -2.491592,-3.957142 -3.367744,-6.736591c-0.876596,-2.780571 -1.315006,-5.988091 -1.315006,-9.623466c0,-5.176208 1.689823,-9.58099 5.068802,-13.216808c-1.582861,-3.891544 -1.433432,-8.254072 0.448748,-13.087154c1.240402,-0.38538 3.079884,-0.096172 5.517546,0.865816c2.438112,0.962433 4.223207,1.786894 5.357103,2.470472c1.133881,0.683336 2.042397,1.262419 2.726868,1.732061c3.978508,-1.111639 8.084198,-1.667574 12.318192,-1.667574s8.340595,0.555935 12.319321,1.667574l2.437881,-1.539042c1.66713,-1.02693 3.635818,-1.968018 5.901344,-2.823494c2.266884,-0.855019 4.00032,-1.090515 5.198463,-0.705137c1.923973,4.833307 2.095436,9.195612 0.512108,13.087149c3.378761,3.635822 5.069252,8.041733 5.069252,13.216805c0,3.635376 -0.43998,6.853004 -1.315224,9.654926c-0.876373,2.802368 -2.00914,5.046326 -3.39875,6.736607c-1.39119,1.690056 -3.123703,3.112244 -5.197792,4.26635c-2.074524,1.155022 -4.085686,1.988693 -6.031227,2.502388c-1.946445,0.51368 -4.138046,0.899742 -6.57571,1.156372c2.223289,1.92395 3.335155,4.960922 3.335155,9.109535l0,13.535889c0,0.768967 0.26741,1.410965 0.802677,1.923973c0.534576,0.512123 1.378819,0.662918 2.533833,0.448303c9.923897,-3.292679 18.018425,-9.227089 24.284027,-17.802933c6.264938,-8.57518 9.398529,-18.229877 9.398529,-28.966557c-0.002251,-8.936962 -2.206223,-17.180038 -6.609665,-24.729189z" fill="white"/>
</svg>