<svg xmlns="http://www.w3.org/2000/svg" width="35" height="35" viewBox="0 0 100 100">
 <metadata id="metadata8">image/svg+xml</metadata>
 <title>Instagram</title>
 <g>
  <path stroke="null" d="m67.828125,2.250001l-35.906248,0c-16.522858,0 -29.921876,13.399019 -29.921876,29.921874l0,35.90625c0,16.522858 13.399018,29.921875 29.921876,29.921875l35.906248,0c16.522858,0 29.921875,-13.399017 29.921875,-29.921875l0,-35.90625c0,-16.522855 -13.399017,-29.921874 -29.921875,-29.921874zm20.94532,65.828124c0,11.54985 -9.39547,20.94532 -20.94532,20.94532l-35.906248,0c-11.549852,0 -20.945313,-9.39547 -20.945313,-20.94532l0,-35.90625c0,-11.549849 9.395461,-20.945311 20.945313,-20.945311l35.906248,0c11.54985,0 20.94532,9.395462 20.94532,20.945311l0,35.90625z" fill="white"/>
  <path stroke="null" d="m52.249996,31.75c-10.216621,0 -18.5,8.283379 -18.5,18.5s8.283379,18.5 18.5,18.5s18.500004,-8.283371 18.500004,-18.5s-8.283375,-18.5 -18.500004,-18.5zm0,30.0625c-6.373245,0 -11.5625,-5.189255 -11.5625,-11.5625c0,-6.377869 5.189255,-11.5625 11.5625,-11.5625s11.5625,5.184631 11.5625,11.5625c0,6.373245 -5.189255,11.5625 -11.5625,11.5625z" fill="white"/>
  <circle stroke="null" r="5.056002" cy="26.400001" cx="72.850017" fill="white"/>
 </g>
</svg>