<svg xmlns="http://www.w3.org/2000/svg" width="40" height="40" viewBox="0 0 100 100">
  <metadata id="metadata8">image/svg+xml</metadata>
  <title>Personal-Logo</title>
  <path stroke="null" id="svg_1" d="m83.130096,82.759117c-4.476715,4.589645 -11.886154,4.701927 -16.493431,0.243439c-3.230247,-3.12606 -4.264122,-7.64415 -3.101734,-11.661415c0.867992,-2.999809 0.085014,-6.23333 -2.123146,-8.44154l-8.271839,-8.271954c-2.142128,-2.142147 -5.264259,-2.978729 -8.190376,-2.194641l-11.278965,3.022243c-2.992073,0.801701 -5.346142,3.156815 -6.060444,6.171024c-0.476784,2.012272 -1.493446,3.922592 -3.04998,5.500328c-4.53371,4.595215 -12.011818,4.624443 -16.579641,0.063065c-4.570455,-4.563908 -4.572486,-11.968864 -0.006099,-16.535309c4.555301,-4.555367 11.865582,-4.587288 16.458558,-0.069954c0.097298,0.095764 0.192551,0.192719 0.28577,0.290844c2.133663,2.247162 5.332081,3.135651 8.325165,2.333614l11.302082,-3.028347c2.926121,-0.784081 5.211685,-3.069672 5.995762,-5.995827l3.028397,-11.30241c0.802013,-2.99312 -0.08646,-6.19158 -2.33358,-8.325197c-0.098217,-0.093216 -0.195171,-0.18856 -0.290924,-0.285854c-4.517197,-4.593117 -4.485275,-11.903418 0.070015,-16.458688c4.566383,-4.566455 11.971252,-4.564418 16.535107,0.006094c4.56131,4.567889 4.532089,12.046098 -0.063072,16.57986c-1.577713,1.556555 -3.48801,2.573235 -5.500252,3.050032c-3.014095,0.714308 -5.369167,3.068403 -6.170937,6.060505l-3.022209,11.279224c-0.784077,2.926132 0.052505,6.048309 2.194611,8.190468l8.271839,8.271938c2.180416,2.180428 5.382549,3.038952 8.336437,2.154099c3.984787,-1.193733 8.480873,-0.21685 11.628502,2.930828c4.529297,4.52935 4.56411,11.851242 0.104385,16.423531" fill-rule="nonzero"/>
</svg>