<?xml version="1.0" encoding="UTF-8" standalone="no"?>
<svg
   xmlns:dc="http://purl.org/dc/elements/1.1/"
   xmlns:cc="http://creativecommons.org/ns#"
   xmlns:rdf="http://www.w3.org/1999/02/22-rdf-syntax-ns#"
   xmlns:svg="http://www.w3.org/2000/svg"
   xmlns="http://www.w3.org/2000/svg"
   viewBox="0 0 1365.3333 1365.3333"
   height="1365.3333"
   width="1365.3333"
   xml:space="preserve"
   id="svg2"
   version="1.1"><metadata
     id="metadata8"><rdf:RDF><cc:Work
         rdf:about=""><dc:format>image/svg+xml</dc:format><dc:type
           rdf:resource="http://purl.org/dc/dcmitype/StillImage" /></cc:Work></rdf:RDF></metadata><defs
     id="defs6"><clipPath
       id="clipPath18"
       clipPathUnits="userSpaceOnUse"><path
         id="path16"
         d="M 0,1024 H 1024 V 0 H 0 Z" /></clipPath><clipPath
       id="clipPath42"
       clipPathUnits="userSpaceOnUse"><path
         id="path40"
         d="M 0,1024 H 1024 V 0 H 0 Z" /></clipPath></defs><g
     transform="matrix(1.3333333,0,0,-1.3333333,0,1365.3333)"
     id="g10"><g
       id="g12"><g
         clip-path="url(#clipPath18)"
         id="g14"><g
           transform="translate(952.4184,953.1372)"
           id="g20"><path
             id="path22"
             style="fill:#bc3149;fill-opacity:1;fill-rule:nonzero;stroke:none"
             d="m 0,0 c -52.871,54.204 -140.378,55.53 -194.791,2.875 -38.15,-36.919 -50.36,-90.278 -36.632,-137.722 10.251,-35.428 1.004,-73.616 -25.075,-99.695 l -97.692,-97.692 c -25.299,-25.299 -62.172,-35.179 -96.73,-25.919 l -133.207,35.693 c -35.337,9.468 -63.139,37.282 -71.575,72.88 -5.631,23.765 -17.638,46.326 -36.021,64.959 -53.544,54.27 -141.862,54.615 -195.809,0.745 -53.978,-53.9 -54.002,-141.353 -0.072,-195.283 53.799,-53.799 140.135,-54.176 194.379,-0.826 1.149,1.131 2.274,2.276 3.375,3.435 25.199,26.539 62.973,37.032 98.322,27.56 l 133.48,-35.765 c 34.558,-9.26 61.551,-36.253 70.811,-70.811 l 35.766,-133.482 c 9.472,-35.349 -1.021,-73.123 -27.56,-98.321 -1.16,-1.101 -2.305,-2.227 -3.436,-3.376 -53.349,-54.245 -52.972,-140.58 0.827,-194.378 53.93,-53.93 141.383,-53.906 195.283,0.072 53.87,53.947 53.525,142.265 -0.745,195.809 -18.633,18.383 -41.194,30.39 -64.959,36.021 -35.597,8.436 -63.411,36.238 -72.88,71.575 l -35.693,133.208 c -9.26,34.558 0.62,71.431 25.919,96.73 l 97.692,97.692 c 25.751,25.751 63.569,35.89 98.455,25.44 47.061,-14.098 100.161,-2.561 137.335,34.613 C 52.259,-140.471 52.67,-53.999 0,0" /></g></g></g><g
       transform="translate(561.4614,564.6611)"
       id="g24"><path
         id="path26"
         style="fill:#231f20;fill-opacity:1;fill-rule:nonzero;stroke:#231f20;stroke-width:27.54100037;stroke-linecap:butt;stroke-linejoin:miter;stroke-miterlimit:10;stroke-dasharray:none;stroke-opacity:1"
         d="M 0,0 292.118,292.119" /></g><g
       transform="translate(561.4614,564.6611)"
       id="g28"><path
         id="path30"
         style="fill:#231f20;fill-opacity:1;fill-rule:nonzero;stroke:#231f20;stroke-width:27.54100037;stroke-linecap:butt;stroke-linejoin:miter;stroke-miterlimit:10;stroke-dasharray:none;stroke-opacity:1"
         d="M 0,0 -399.041,106.923" /></g><g
       transform="translate(561.4614,564.6611)"
       id="g32"><path
         id="path34"
         style="fill:#231f20;fill-opacity:1;fill-rule:nonzero;stroke:#231f20;stroke-width:27.54100037;stroke-linecap:butt;stroke-linejoin:miter;stroke-miterlimit:10;stroke-dasharray:none;stroke-opacity:1"
         d="M 0,0 106.923,-399.041" /></g><g
       id="g36"><g
         clip-path="url(#clipPath42)"
         id="g38"><g
           transform="translate(951.1857,954.3854)"
           id="g44"><path
             id="path46"
             style="fill:#231f20;fill-opacity:1;fill-rule:nonzero;stroke:none"
             d="m 0,0 c 53.906,-53.906 53.906,-141.305 0,-195.212 -53.906,-53.906 -141.305,-53.906 -195.212,0 -53.906,53.907 -53.906,141.306 0,195.212 C -141.305,53.906 -53.906,53.906 0,0" /></g><g
           transform="translate(951.1857,954.3854)"
           id="g48"><path
             id="path50"
             style="fill:none;stroke:#231f20;stroke-width:2.30100012;stroke-linecap:butt;stroke-linejoin:miter;stroke-miterlimit:10;stroke-dasharray:none;stroke-opacity:1"
             d="m 0,0 c 53.906,-53.906 53.906,-141.305 0,-195.212 -53.906,-53.906 -141.305,-53.906 -195.212,0 -53.906,53.907 -53.906,141.306 0,195.212 C -141.305,53.906 -53.906,53.906 0,0 Z" /></g><g
           transform="translate(260.0259,769.1896)"
           id="g52"><path
             id="path54"
             style="fill:#231f20;fill-opacity:1;fill-rule:nonzero;stroke:none"
             d="m 0,0 c 53.906,-53.906 53.906,-141.305 0,-195.212 -53.906,-53.906 -141.305,-53.906 -195.212,0 -53.906,53.907 -53.906,141.306 0,195.212 C -141.305,53.906 -53.906,53.906 0,0" /></g><g
           transform="translate(260.0259,769.1896)"
           id="g56"><path
             id="path58"
             style="fill:none;stroke:#231f20;stroke-width:2.30100012;stroke-linecap:butt;stroke-linejoin:miter;stroke-miterlimit:10;stroke-dasharray:none;stroke-opacity:1"
             d="m 0,0 c 53.906,-53.906 53.906,-141.305 0,-195.212 -53.906,-53.906 -141.305,-53.906 -195.212,0 -53.906,53.907 -53.906,141.306 0,195.212 C -141.305,53.906 -53.906,53.906 0,0 Z" /></g><g
           transform="translate(765.9899,263.2256)"
           id="g60"><path
             id="path62"
             style="fill:#231f20;fill-opacity:1;fill-rule:nonzero;stroke:none"
             d="m 0,0 c 53.906,-53.906 53.906,-141.305 0,-195.212 -53.906,-53.906 -141.305,-53.906 -195.212,0 -53.906,53.907 -53.906,141.306 0,195.212 C -141.305,53.906 -53.906,53.906 0,0" /></g><g
           transform="translate(765.9899,263.2256)"
           id="g64"><path
             id="path66"
             style="fill:none;stroke:#231f20;stroke-width:2.30100012;stroke-linecap:butt;stroke-linejoin:miter;stroke-miterlimit:10;stroke-dasharray:none;stroke-opacity:1"
             d="m 0,0 c 53.906,-53.906 53.906,-141.305 0,-195.212 -53.906,-53.906 -141.305,-53.906 -195.212,0 -53.906,53.907 -53.906,141.306 0,195.212 C -141.305,53.906 -53.906,53.906 0,0 Z" /></g></g></g></g></svg>